/* XPM */
static char *_47b023dfe4344fd8e8432828af7ab60aZn5qpJHb12t7dZm[] = {
/* columns rows colors chars-per-pixel */
"50 50 250 2 ",
"   c #181819",
".  c #110F11",
"X  c #251C1C",
"o  c #271916",
"O  c #2A140F",
"+  c #1F201D",
"@  c #27241C",
"#  c #37251A",
"$  c #3D321E",
"%  c #1B1E22",
"&  c #1A2426",
"*  c #1D2B34",
"=  c #232324",
"-  c #2C2324",
";  c #282A28",
":  c #372A26",
">  c #3B3229",
",  c #3B2E32",
"<  c #293636",
"1  c #373739",
"2  c #2B2F30",
"3  c #291E22",
"4  c #451B14",
"5  c #492417",
"6  c #4D2613",
"7  c #472D25",
"8  c #463529",
"9  c #593528",
"0  c #443D3C",
"q  c #483B34",
"w  c #583C36",
"e  c #512D2A",
"r  c #6A3628",
"t  c #653E33",
"y  c #78392B",
"u  c #722C11",
"i  c #3D413D",
"p  c #49443B",
"a  c #55443A",
"s  c #56442D",
"d  c #664638",
"f  c #774A38",
"g  c #6B543C",
"h  c #74553B",
"j  c #6C422B",
"k  c #7D603E",
"l  c #363B41",
"z  c #453D41",
"x  c #3B4343",
"c  c #3C4C4B",
"v  c #364448",
"b  c #3E5255",
"n  c #3A4C53",
"m  c #484949",
"M  c #534C4A",
"N  c #574844",
"B  c #4C524D",
"V  c #54534C",
"C  c #585448",
"Z  c #4A5657",
"A  c #535453",
"S  c #5B5454",
"D  c #5C5A55",
"F  c #5C5C5B",
"G  c #555A5B",
"H  c #4F4D53",
"J  c #664D47",
"K  c #764A43",
"L  c #685649",
"P  c #7C5D4C",
"I  c #775747",
"U  c #645D5A",
"Y  c #685A54",
"T  c #765B55",
"R  c #634E53",
"E  c #57625C",
"W  c #4E635E",
"Q  c #7B644A",
"!  c #63625C",
"~  c #6C635D",
"^  c #6B6658",
"/  c #7B6658",
"(  c #575D62",
")  c #495D62",
"_  c #4D6464",
"`  c #546363",
"'  c #5B6B6C",
"]  c #5A6766",
"[  c #5B6C74",
"{  c #5C7273",
"}  c #686967",
"|  c #756B66",
" . c #68726D",
".. c #74726D",
"X. c #7B7367",
"o. c #647373",
"O. c #6B7B7B",
"+. c #687877",
"@. c #737C7C",
"#. c #787874",
"$. c #6D6E71",
"%. c #615A61",
"&. c #8A3A2D",
"*. c #86260D",
"=. c #85493A",
"-. c #964837",
";. c #87533C",
":. c #964B30",
">. c #A84B36",
",. c #B6573A",
"<. c #A7513D",
"1. c #C25C33",
"2. c #C86738",
"3. c #835A4C",
"4. c #875946",
"5. c #965746",
"6. c #875D52",
"7. c #8D5249",
"8. c #A95847",
"9. c #B55B44",
"0. c #88664A",
"q. c #95654B",
"w. c #836C5C",
"e. c #896857",
"r. c #946453",
"t. c #976B59",
"y. c #8C7359",
"u. c #93735B",
"i. c #987758",
"p. c #9B704D",
"a. c #A6654B",
"s. c #B96749",
"d. c #A56A56",
"f. c #B76655",
"g. c #A57458",
"h. c #B7775B",
"j. c #AD764F",
"k. c #856D65",
"l. c #986C62",
"z. c #8A7668",
"x. c #9C7B64",
"c. c #957B6B",
"v. c #977767",
"b. c #867B74",
"n. c #987D73",
"m. c #966D71",
"M. c #A77966",
"N. c #B87966",
"B. c #A77C72",
"V. c #A76E63",
"C. c #C66749",
"Z. c #D46A4C",
"A. c #DB754A",
"S. c #C76C56",
"D. c #D36D52",
"F. c #C77458",
"G. c #D97758",
"H. c #C7784F",
"J. c #E37554",
"K. c #D27D64",
"L. c #C55C47",
"P. c #78827C",
"I. c #6C817D",
"U. c #A8835C",
"Y. c #B98658",
"T. c #BF905C",
"R. c #988268",
"E. c #84837C",
"W. c #8A857B",
"Q. c #9C8475",
"!. c #968678",
"~. c #A6856A",
"^. c #B68768",
"/. c #B6936B",
"(. c #A78977",
"). c #B78A76",
"_. c #A7937A",
"`. c #B89777",
"'. c #A0906F",
"]. c #BFA378",
"[. c #988052",
"{. c #DC855A",
"}. c #C68E5B",
"|. c #EA875B",
" X c #C8866D",
".X c #D68967",
"XX c #C8976A",
"oX c #D79A67",
"OX c #C38A74",
"+X c #C69877",
"@X c #D89677",
"#X c #D78875",
"$X c #E68F67",
"%X c #D7A66B",
"&X c #C6A47C",
"*X c #DCA879",
"=X c #DAB378",
"-X c #E8B67A",
";X c #EBAA71",
":X c #F6C67D",
">X c #717C81",
",X c #847F85",
"<X c #6A8486",
"1X c #788786",
"2X c #788E99",
"3X c #7B9497",
"4X c #75908E",
"5X c #7B9FA5",
"6X c #898986",
"7X c #968C85",
"8X c #8A928A",
"9X c #999488",
"0X c #879797",
"qX c #989A93",
"wX c #A68B81",
"eX c #A89686",
"rX c #B79585",
"tX c #B2948B",
"yX c #98A298",
"uX c #B9A589",
"iX c #AAA795",
"pX c #B9A796",
"aX c #B8B397",
"sX c #8AA8A7",
"dX c #95A6A5",
"fX c #99B1B3",
"gX c #A8B4A8",
"hX c #ADB6AE",
"jX c #8896A1",
"kX c #C59A87",
"lX c #CA9889",
"zX c #C7A686",
"xX c #C6A997",
"cX c #C9B29C",
"vX c #D9B597",
"bX c #D7AD8B",
"nX c #EAB784",
"mX c #EABA90",
"MX c #CCB8A5",
"NX c #E6B5A4",
"BX c #B9C6BD",
"VX c #CFC097",
"CX c #EBC499",
"ZX c #F4C88B",
"AX c #CFC3AC",
"SX c #EAC9A6",
"DX c #F2D2A9",
"FX c #A6BEC0",
"GX c #B0CFD0",
"HX c #CDD1C6",
/* pixels */
"M.M.^.M.J lX#XK.S.9.,.*.u u % < * v ) [ 2X2X[ e 9.Z.C.G.G.|.C.<.# 5 g.V.d.g.).OXM./ (.7.a.d.g.d.q.4.",
"l v v c Z Z o.` ; # N N N J | Y a :   - X X : , 3 = . . O O o 8 7 : # #   & =   ; Z = = . & 1 = = % ",
"Z H G Z Z @.@.@.v 9X9XR.Q u.~.y.w.a 1 ..} ~ ..} S z , S L d y.).~.).i.4.% >XdX0XdXFXFX1X] v ,XS } ..",
"G $.}  .Z G >X$.v C a 8 L L L ~.c.L 2 x B G D V A A x m a g Q u.h j j M.< O.0X' >XO.1XZ Z < 0 N N Y ",
"; X X . X o X : B : - # o   - > # 8 0 X   . .   o o 0 > O O o   X @ = - ; = . .   . O O - m o . O o ",
"^./.+X/ ^.4.r.kXp.M.zXOXa.N rXOXd.s.H.H.s.=.t -.Z.D.D.C.Z.D.D.6.c.uXpX(.v.M.h 9 e.O S.S.S.f.5.>.8.=.",
"~.zXzX~ ~.h 3.4.f `.zXbXu.m l.f ;.;.j.@X@XB.K y 9.s.8.s.C.s.C.6.c.g I I e.P I z.w.O 9.<.-.&.8.<.s.a.",
"p Y L 1 a q q Y N u.t.t.6.N 3.6.r.q.I e.0.I w d 6.3.I P 4.4.f T / g h R.P (.c.Q.z.: K 7.=.4.f f r.3.",
"O.1X .E  .` o.I.< 8.9.8.8.8.S.D.G.d.: S M N z m 0 , 1 !.SXDXvX).).q.q.zXY MXuXMXrXl.rXkXwXk.#.T n.n.",
"o.3Xo. .P.' +.@.< S.G.D.s.9.{.G.G.a.1 ....} F S m 1 1 eXvXuXzXt.q.p.p.p.s cXcXcX).M.4.M.r.k.7XQ.(.wX",
"z.b.Y T ! 7XX.7XF ).OXN.@XN.N. XN.V.~ b.6Xb.| ~ J J T (.^.g.d.g.h f q.0.g ).x.xXxX(.I I 6.T / n.wXwX",
"5.5.8.8.N cX_.(.c.R.(.y.uXpXR.`.(.`.~.u.c.v.T I 8.s.s.F.F.s.s.s.8 h e.0.0.~.~.pXMXtXI t.t.B.l.e.v.6.",
",.>.>.C.J MXMXxXu.4.u.v.xXcX'.~.x.g.x.0.e.x.k.7.L.1.,.G.A.Z.A.A.# 0.~.f f u.AXxXwXeXN r.t.M.l.l.M.3.",
"I r.5.5.z.pX`.~.y.L w.eXwXeXR.Q g L L L P Q k.w.7.=.;.q.4.f f f 0 ~ T q Y L n.(.e.z.T e.6.6./ L / T ",
"( eX~.0.~.^.+X&XzXi.T n.v.(.i.~.~.e.d / (.v.y.u.e.0.e.~.Y m 1 0 m 1 - , z A K N.d.j.a.h.a.a.r.0 / P ",
"{ cX+XY.}.%XmXCXXXmXP M.g.+XXXbXbXU.h c.zXkXOXU.g.g.g.g.J %.} U M N N Y , ( r.|.G.2.1.2.1.,.j.# I 3.",
"G D s 8 8 s s w # a q : 8 w s p q 7 : q q q q 8 > > 7 : H x 2 ; & X - 1 = b N d s 6 5 6 6 5 7 @ $ : ",
"~.~.~.(.x.q I q.4.4.4.4.6 h a Z 1 B A G M S S 0 w 5.=.y =.r y t.q J T I I J d P w.5 : w K 6.I P I 3.",
"CXCXSXCXvXK  X XN.h.h. Xh.N.L m B  . .} #.#...N ;.D.>.:.9.D.$X;XT B.M.r.q.4.t.t.(.f 7 h 5.r.d.^.OX).",
"7 > > $ 8 : # 5 5 # # 7 e #       = = = & & +   # 4 4 O 5 9 f r S q # # # # o o # o o o # o @ @ # : ",
"| m 0 0 N q p p J q w 7.8.8.8.5.5.5.6.k.U.&X&X&X+X`.zXkXa ]  .m m i 1 1 < < T r &.&.-.&.8.9.5.@ 7 9 ",
"b.} S M M V U Y | p 7.{.A.G.D.,.Z.A.S.c.NXDXDXCXnXCXDXSXL m ` o.` Z Z ' <X< V.K.Z.,.>.&.-.:.h.V l.V.",
"..F p , m M M V U m P ,.,.S.S.9.S.C.;.e.bXDXDXCXmXSXSXSX~ c o.>Xo.o.>X4X1Xn 9 =.f -.-.&.&.5.9 M z.t.",
"bXvX*XY.!.] 4XsXO._ { 1Xb Z / M.kXxXrXtXz.c.7Xt.h.K. XN.V.B.N.m.1X..b.b.E.T tXc.k.k.1 z.d L Y ~ k.n.",
"*XnX-X%Xz.E Z W 3X' 3XfX4X' Y ).^.M.M.d.g.x.T K -.a.K..Xf.5.F..XR d 3.r.M.6.q.N.lX(.- t r.3.I e.P j ",
"a..XnX-XMXW Z E 0X_ _ c c 1XT ).M.t.4.3.e.y.z.x..X{.|.|.A.|.$X|.L I M.q.t.0.r.0.0._.@ 9 d d j f r j ",
"2X1X8XqXHXHXBXhX9X<XjXfXdXhXGXFXfX3Xo.1XeX!.iXaXuXaXeX9XdXsX5XsXGX4Xo.3X3X5X6XqX6XgX..| U 1X0XfXfXfX",
"S e.t.).vXvXNXbXN.6.} } } ! ! ! | | ( ..mXnXnX-X%X%XnXCXU G #.#...F ..b.#.[ lXOX#Xh.N. XN.).r.y J.D.",
"A wXpXkXrXx.e.e.B.T } F E D ! } U U ( } bX*X*X+X&XvXbXxXF 2 2 2 m ` D 0 0 c f 5.q.d.a.;.;.4.f =.C.C.",
"<X' c < - ; 0 3 1 ( 1 1 1 < x x x < Z +.x x 1 1 1 l x Z n v 2 < = - - , X G N , # X - - X X 1 ; o X ",
"`.vXlXQ.s.Z.Z.D.G.C..X#XF.} _.rX_.y.Q (.Q.z.| z.rXB.v.n.B.wX(.7XV.S.G.G.G.G.A.D.G.: z.v.w.e.c.Q.n.X.",
"zXzXlXk.F.G.G.Z.C.C.S.F.s.F _.Q.z.w.k.wXc.Y R z.Q.c./ I v.(.(.b.5.S.G.Z.J.G.S.,.f.: ~.(.B.l.v.z.Q.!.",
"Q._.!.} ^.^.OXN.t.M..X@XOX^ _._.R._.7XW.W.6X6Xb.W.b.k.k.n.7XwXb.M.OXh.OX XN.^.+XM.a c.(.Q.n.wX9X!.E.",
">X6X$.@.+.O.O.1X0X2XCXCX&XzX+X&XbXzXeX3XdXdXdXdXdXdXdX<X1X1X6XdXdX0X@.@.@.O.VXVXVX_.eXpXpXtX9XdXgXhX",
"#.X.| ~ ! D ! ..W.1X:XZXoX-X%X:X-X%X`.o.qX9X6X6X#.#.@.] } ! ..8X6X6X} V A ; ;X%XoXY.Y.XXT.^.(.qXiXAX",
"F } U S 0 0 M V V yX~.i.p.0.Q i.y.h b. .$.A Z G x i i c ` ] ] ] ' o.G ( o.& 0.L Q y.w.y.0._.9X0XqX8X",
"I f t e e > > N L 9XL U p > x 1 m 1 B B 1 ; ; 1 p g L ^ b.^ C C C V ^ X.W.^ ^ | ~ b.| a w.Q.!.T / c.",
"Z.G.A.C.9.e.l.rXrXe.~.xXw.L o.#.E... .U Y N p 8 Q /./.`.XX&X`.`.~./ &XbXbX&X+XzXzXvXcXM.*XnX*X}.@X*X",
"r j j j 9 N N N a 8 8 N 7 : ` c 1 m D V i ; ; ; a g s d P Q I L I p g I Q I I 0.y.w./ d h 0.0.;.q.h ",
"o h i.i.i.x.i.k 0.d a d t d T K f ;.6.D V 8 q a a w 9 w 0 i m 0 A V p D U V i +.P. .] ! V p p - M N ",
"> ].DXnX=XZXZX%XZXzXd.S.f.S.S.G.C.s.f.k.k.e.3.P 6.6.r.g.S ] ..} ..} } E.8XP.` fXfX0X4XfXdX0X@.& v F ",
"p /.-X%X%X-X-X-X-XzX7.J.G.s.s.C.9.K.V.} k.l.r.6.e.t.u.r.M } ....#.E  .} ! ..W hXfXdX0X0X8X8X`   < 1 ",
"^ w.x.x.X.9X_.uXuX_.e.M.M.I D #.~ | ..o.] } ( ]  .@.@. .} ' ` ` 1 z.(.k.rXn.~.tXrXwX) ' { { ` Z m G ",
"c.c.B.n.B c.!.!.R.R.y.u.M./ v _ ] ' ] ' ` o.{ ' +.I.I.' ` G Z '   Y.$X$X@X.XoX.X@X X2 o.o.' ` ` b b ",
"c.x.x.u.M u.r.i.i.i.u.u.x.v.< ' ' O.{ ` O.O._ ' I.1X .` ' ' ' ] @ XX;X;X.X.X{.{.$Xh.& O.+.O.' m Z ` ",
"P.9XW.#.+.....#.#.8XmXbXuX`.!.!.uXeX0X4X3X3X3XsXdXdXdX<X2X0XdXfXqXgXqXiXqXyXiXiXaX!.1XdXqX8X1X4X4XsX",
"..#.^ !  .E V ! E.>XZXZXXXnXXX-X-X=X~.$.8X9X8X8X8X6X8XO.P.} } 6XE.6X#.S D x ZXZXnXh.^.T.U.q.c.1XW.iX",
"..W.W.#.....z.X.E.0X:X:X-X}.}.-X=X/.rX$.qX6X@.#.D ! E B ! #.8X8X6X@.} ..1Xo oXj.j.}.Y.XX%X%X(.8XqXaX",
"G m l 1 = - : ; p hX0 2 ; @ & + = ; m E x     ; @ .   c ' 1 & & < v < c b & 2 2 < 2 2 ; < m _ < < < ",
"C.D.s.:.-.T 0.`.eXv._.cX/ U { } E.G } A D C M p / `.`./.^./.U.U.0.^ `.zXxX`.`.U./.uXeXu.*X-XXXh.XXnX"
};
